# xmcd
#
# Track frame offsets:
#	150
#	23201
#	48646
#	67590
#	89891
#	103656
#	125385
#	143279
#	178094
#	197099
#	225402
#	237319
#	257631
#	279369
#	306234
#	323085
#
# Disc length: 4541 seconds
#
# Revision: 2
# Processed by: cddbd v1.5.2PL0 Copyright (c) Steve Scherf et al.
# Submitted via: EZCDAudioConverter 2.1.7.1
#
DISCID=d811bb10
DTITLE=Fotheringay - Nothing More 3/3
DYEAR=1970
DGENRE=
TTITLE0=The Way I Feel [Live In Rotterdam, 1970]
TTITLE1=The Sea [Live In Rotterdam, 1970]
TTITLE2=Too Much Of Nothing [Live In Rotterdam, 1970]
TTITLE3=Nothing More [Live In Rotterdam, 1970]
TTITLE4=I'm Troubled [Live In Rotterdam, 1970]
TTITLE5=Two Weeks Last Summer [Live In Rotterdam, 1970]
TTITLE6=The Ballad Of Ned Kelly [Live In Rotterdam, 1970]
TTITLE7=Banks Of The Nile [Live In Rotterdam, 1970]
TTITLE8=Memphis Tennessee [Live In Rotterdam, 1970]
TTITLE9=Interview - The Sea [Live For The BBC, 1970]
TTITLE10=The Lowlands Of Holland [Live For The BBC, 1970]
TTITLE11=Eppie Moray [Live For The BBC, 1970]
TTITLE12=John The Gun [Live For The BBC, 1970]
TTITLE13=Bold Jack Donahue [Live For The BBC, 1970]
TTITLE14=Gypsy Davey [Live For The BBC, 1970]
TTITLE15=Wild Mountain Thyme [Live For The BBC, 1970]
EXTD=
EXTT0=
EXTT1=
EXTT2=
EXTT3=
EXTT4=
EXTT5=
EXTT6=
EXTT7=
EXTT8=
EXTT9=
EXTT10=
EXTT11=
EXTT12=
EXTT13=
EXTT14=
EXTT15=
PLAYORDER=
